<?xml version="1.0" encoding="UTF-8" standalone="no"?>
<svg
   width="259"
   height="45"
   viewBox="0 0 259 45"
   fill="none"
   version="1.1"
   id="svg5"
   sodipodi:docname="dark-logo-tamutat.svg"
   inkscape:version="1.4.2 (f4327f4, 2025-05-13)"
   xmlns:inkscape="http://www.inkscape.org/namespaces/inkscape"
   xmlns:sodipodi="http://sodipodi.sourceforge.net/DTD/sodipodi-0.dtd"
   xmlns="http://www.w3.org/2000/svg"
   xmlns:svg="http://www.w3.org/2000/svg">
  <sodipodi:namedview
     id="namedview5"
     pagecolor="#505050"
     bordercolor="#eeeeee"
     borderopacity="1"
     inkscape:showpageshadow="0"
     inkscape:pageopacity="0"
     inkscape:pagecheckerboard="0"
     inkscape:deskcolor="#505050"
     inkscape:zoom="1.6681168"
     inkscape:cx="136.38134"
     inkscape:cy="141.17717"
     inkscape:window-width="1366"
     inkscape:window-height="697"
     inkscape:window-x="-8"
     inkscape:window-y="-8"
     inkscape:window-maximized="1"
     inkscape:current-layer="svg5" />
  <text
     xml:space="preserve"
     style="font-size:34.1462px;text-align:start;writing-mode:lr-tb;direction:ltr;text-anchor:start;fill:#ffffff;fill-opacity:0.01;stroke-width:2.84552"
     x="58.50478"
     y="38.917881"
     id="text1"
     transform="scale(1.0538372,0.94891319)"><tspan
       sodipodi:role="line"
       id="tspan1"
       style="font-style:normal;font-variant:normal;font-weight:bold;font-stretch:normal;font-family:Montserrat;-inkscape-font-specification:'Montserrat Bold';fill:#ffffff;fill-opacity:1;stroke-width:2.84552"
       x="58.50478"
       y="38.917881">TAMUTAT</tspan></text>
  <g
     clip-path="url(#clip0_13887_414)"
     id="g5">
    <path
       d="M59.9775 5.18701L53.5781 13.4361L56.0219 20.5078L59.9775 5.18701Z"
       fill="#04223E"
       id="path2" />
    <path
       d="M60.0002 5.17773L51.127 10.7247L44.2715 7.6396L60.0002 5.17773Z"
       fill="white"
       id="path3" />
    <path
       d="M12.6406 40.9688C16.3068 43.5077 20.7637 45.0002 25.5725 45.0002C38.083 45.0002 48.2239 34.9274 48.2239 22.5008C48.2239 21.0945 48.0884 19.7215 47.8395 18.3877C41.5594 26.7783 26.3215 44.6219 12.6406 40.9688Z"
       fill="white"
       id="path4" />
    <path
       d="M46.9269 14.9908C43.814 6.25757 35.4304 0 25.5721 0C13.0615 0 2.91954 10.0728 2.91954 22.4994C2.91954 24.2472 3.12213 25.9467 3.50183 27.5795C1.78622 27.8406 0 26.1089 0 26.1089C1.23519 28.4132 2.93228 29.9747 4.60969 31.0337C4.61779 31.0533 4.62473 31.0728 4.63284 31.0924C5.36215 31.527 6.14586 31.9168 6.98862 32.2503C8.46112 32.8448 9.69979 33.0839 10.2913 33.1725C18.11 34.5155 29.8113 31.0188 46.9269 14.9908Z"
       fill="#04223E"
       id="path5" />
  </g>
  <defs
     id="defs5">
    <clipPath
       id="clip0_13887_414">
      <rect
         width="60"
         height="45"
         fill="white"
         id="rect5" />
    </clipPath>
  </defs>
</svg>
